<?xml version="1.0" encoding="UTF-8"?>
<svg id="Calque_2" data-name="Calque 2" xmlns="http://www.w3.org/2000/svg" viewBox="0 0 336.43 344.47">
  <defs>
    <style>
      .cls-1 {
        fill: #fff;
        stroke-width: 0px;
      }
    </style>
  </defs>
  <g id="Calque_1-2" data-name="Calque 1">
    <g>
      <polygon class="cls-1" points="309.53 132.19 282.64 92.16 274.56 80.11 247.86 40.04 220.96 0 194.06 40.04 220.96 80.08 247.74 120.18 255.74 132.19 282.64 172.24 274.79 184.31 247.89 224.35 221 264.39 194.1 224.35 167.2 184.31 140.31 224.35 167.2 264.39 194.1 304.43 221 344.47 247.89 304.43 274.79 264.39 301.68 224.35 328.58 184.31 336.43 172.24 309.53 132.19"/>
      <polygon class="cls-1" points="161.34 169.22 186.21 132.19 213.11 172.24 240.01 212.28 266.9 172.24 240.01 132.19 213.11 92.16 186.21 52.12 159.32 92.16 134.44 129.19 134.44 129.19 133.2 131.05 132.42 132.19 105.53 172.24 105.58 172.24 80.68 209.31 53.79 169.27 0 169.27 26.9 209.31 53.79 249.35 80.68 289.39 107.58 249.35 107.64 249.26 134.48 209.31 161.34 169.22"/>
    </g>
  </g>
</svg>